<?xml version="1.0" encoding="utf-8"?>
<!-- Svg Vector Icons : http://www.onlinewebfonts.com/icon -->
<!DOCTYPE svg PUBLIC "-//W3C//DTD SVG 1.1//EN" "http://www.w3.org/Graphics/SVG/1.1/DTD/svg11.dtd">
<svg version="1.1" xmlns="http://www.w3.org/2000/svg" xmlns:xlink="http://www.w3.org/1999/xlink" x="0px" y="0px" viewBox="0 0 1000 1000" enable-background="new 0 0 1000 1000" xml:space="preserve">
<metadata> Svg Vector Icons : http://www.onlinewebfonts.com/icon </metadata>
<g><path d="M500,75.4c-270.6,0-490,162.9-490,364c0,125.1,74.9,234.2,204.4,299.8c0,0.8-0.3,1.3-0.3,2.2c0,54.4-30.8,114.2-48.8,144.9h0.1c-1.4,3.3-2.3,6.9-2.3,10.8c0,15.3,12.4,27.5,27.7,27.5c2.3,0,6-0.5,7.4-0.5c0.3,0,0.5,0,0.5,0.1c95.7-15.5,200.9-99.3,221.9-124.5c21.5,3.2,36.1,3.6,54,3.6c7.6,0,15.8-0.1,25.4-0.1c270.6,0,490-162.9,490-364S770.6,75.4,500,75.4z M500,742.6l-14.4,0.1l-10.9,0c-16.8,0-27.8-0.4-45.1-3l-34.3-4.8l-22,26.4c-10.2,12.1-61.8,54.2-118.8,81.2c11.6-30.4,20.1-63.5,20.9-96.3l0.3-1.8V702l-33.3-16.9c-108.7-55.1-171-144.7-171-245.8C71.3,272.1,263.6,136,500,136c236.4,0,428.7,136.1,428.7,303.3C928.7,606.5,736.4,742.6,500,742.6z"/></g>
</svg>