<?xml version="1.0" encoding="utf-8"?>
<!-- Svg Vector Icons : http://www.onlinewebfonts.com/icon -->
<!DOCTYPE svg PUBLIC "-//W3C//DTD SVG 1.1//EN" "http://www.w3.org/Graphics/SVG/1.1/DTD/svg11.dtd">
<svg version="1.1" xmlns="http://www.w3.org/2000/svg" xmlns:xlink="http://www.w3.org/1999/xlink" x="0px" y="0px" viewBox="0 0 1000 1000" enable-background="new 0 0 1000 1000" xml:space="preserve">
<metadata> Svg Vector Icons : http://www.onlinewebfonts.com/icon </metadata>
<g><path d="M780,649.4V780H220V579.4l55.5-55.4c27.3-27.3,71.7-27.3,99,0l170.8,170.8l24.7-24.7l24.7,24.7l65.8-65.8c27.3-27.3,71.7-27.3,99,0L780,649.4z M220,220h560v380.1l-20.5-20.6c-27.3-27.3-71.7-27.3-99,0L570,670.1L374.5,474.5c-27.3-27.3-71.7-27.3-99,0L220,530.1V220z M850,290h70v420h-70V290z M150,220H10v560h140v70h700v-70h140V220H850v-70H150V220z M80,290h70v420H80V290z M628.3,395c0-25.8,20.9-46.7,46.7-46.7s46.7,20.9,46.7,46.7c0,25.8-20.9,46.7-46.7,46.7S628.3,420.8,628.3,395z M605,395c0,38.7,31.3,70,70,70s70-31.3,70-70c0-38.7-31.3-70-70-70S605,356.3,605,395z"/></g>
</svg>